<svg xmlns="http://www.w3.org/2000/svg" viewBox="0 0 75.75 75.75"><defs><style>.a{fill:#1d1d1b;}.b{fill:#fff;}</style></defs><circle class="a" cx="37.88" cy="37.88" r="37.88" /><path class="b" d="M39.64,86.32a38.24,38.24,0,0,0,20.43.08,9.34,9.34,0,0,1-1.24-2.07c-2-4.53.94-8.07-.33-13.27A12.47,12.47,0,0,0,56.67,67a21.22,21.22,0,0,0,11.39-5.25c1.8-1.64,6-5.51,6.27-11.75A16.23,16.23,0,0,0,69.5,38.33a7.77,7.77,0,0,0,2.17-5c0-.63.09-3.65-2-5s-5,.05-6,.55a9.23,9.23,0,0,0-3.88,3.81,22.81,22.81,0,0,0-19.14.48,12.3,12.3,0,0,0-4.5-3.5c-1.61-.72-4-1.82-5.84-.67s-1.83,4-1.83,4.83A8.26,8.26,0,0,0,30,38.5a16.53,16.53,0,0,0-4.81,11.31c0,8.12,6.88,12.85,8.19,13.75A20,20,0,0,0,43.17,67a6.53,6.53,0,0,1-2.67,5.33,6.09,6.09,0,0,1-6.17.34c-.51-.29-.87-.61-3.64-4.69-1.84-2.72-2.1-3.21-2.94-3.79-1.71-1.2-4.32-1.78-5.08-.86s.86,3.72,2.33,6C27.37,73,29.29,76,33.17,77.5a13.47,13.47,0,0,0,7,.67Z" transform="translate(-12.13 -12)" /></svg>