<svg xmlns="http://www.w3.org/2000/svg" viewBox="0 0 67.63 75.71"><defs><style>.a{fill:#1a1a1a;}.b{fill:#fff;}</style></defs><path class="a" d="M37.87,0a8,8,0,0,0-6.95,4l1.44,2.49L13.48,17.43,12,14.93a8.52,8.52,0,0,0-6.95,4,8.52,8.52,0,0,0,0,8H8V48.78H5.09a8.52,8.52,0,0,0,0,8,8.52,8.52,0,0,0,7,4l1.44-2.5L32.36,69.23l-1.44,2.49a8,8,0,0,0,13.91,0l-1.44-2.49L62.27,58.32l1.44,2.5a8,8,0,0,0,6.95-12H67.78V27h2.88a8.52,8.52,0,0,0,0-8,8.52,8.52,0,0,0-6.95-4l-1.44,2.5L43.39,6.52,44.83,4A8,8,0,0,0,37.87,0Zm0,3.32.64.37V13.4L58.75,25.09l8.4-4.85.63.37v.73l-8.39,4.85V49.56l8.39,4.85v.73l-.64.37-8.39-4.85L38.51,62.35V72l-.64.37L37.24,72V62.35L17,50.66,8.61,55.51,8,55.14v-.73l8.39-4.85V26.19L8,21.34v-.73l.63-.37L17,25.09,37.24,13.4V3.71Zm0,12.18L18.51,26.7V49.05L37.88,60.23,57.24,49.05V26.7Zm-.63,1.6v6.37L25.73,30.13,20.22,27Zm1.27,0,17,9.83L50,30.13,38.51,23.49ZM19.58,28.05l5.52,3.18V44.52L19.58,47.7Zm36.59,0V47.7l-5.52-3.18V31.23ZM25.73,45.62l11.51,6.64v6.37l-17-9.83Zm24.29,0,5.51,3.18-17,9.83V52.26Z" transform="translate(-4.06 -0.02)"/><path class="b" d="M38,37.05l10.73-6.2-10.9-6.29L27,30.85l10.73,6.2" transform="translate(-4.06 -0.02)"/><path class="b" d="M26.35,32V44.53l10.89,6.29V38.43a.78.78,0,0,1,0-.21.48.48,0,0,1-.2-.07Z" transform="translate(-4.06 -0.02)"/><path class="b" d="M38.51,38.43V50.82l10.9-6.29V32l-10.74,6.2" transform="translate(-4.06 -0.02)"/></svg>