<svg xmlns="http://www.w3.org/2000/svg" viewBox="0 0 48.53 28.1"><defs><style>.d{fill:#1d1d1b;}.c,.d{stroke:#fff;stroke-miterlimit:10;}.d{stroke-width:0.7px;}</style></defs><path class="b" d="M29.89,36.36l14.9,6.22a4.8,4.8,0,0,1,1-.43A4.72,4.72,0,0,1,47,42l3.54-4.78a5.37,5.37,0,1,1,9.9,2.73,6,6,0,0,1-4.52,2.56L51.15,46a4.4,4.4,0,0,1-4.46,4.21A4.31,4.31,0,0,1,43,46.85L28.2,40.46a4.63,4.63,0,0,1-3.92.46A4.3,4.3,0,0,1,22,35.26a4.25,4.25,0,0,1,5.47-2A4.58,4.58,0,0,1,29.89,36.36Z" transform="translate(-17.17 -26.9)" /><path class="b" d="M34.59,35.81" transform="translate(-17.17 -26.9)" /><circle class="c" cx="38.66" cy="10.02" r="2.77" /><circle class="d" cx="29.76" cy="19.18" r="2.1" /><circle class="d" cx="8.69" cy="10.15" r="2.11" /></svg>